<?xml version="1.0" encoding="utf-8"?>
<!-- Generator: Adobe Illustrator 23.0.0, SVG Export Plug-In . SVG Version: 6.00 Build 0)  -->
<svg version="1.1" id="Capa_1" xmlns="http://www.w3.org/2000/svg" xmlns:xlink="http://www.w3.org/1999/xlink" x="0px" y="0px"
	 viewBox="0 0 413.1 413.1" style="enable-background:new 0 0 413.1 413.1;" xml:space="preserve">
<style type="text/css">
	.st0{fill:#6B3898;}
</style>
<g>
	<g>
		<path class="st0" d="M206.5,0L206.5,0C123.9,0,57.2,66.7,57.2,149.3c0,28.8,9.2,56.3,22,78.9l97.3,168.4c6.1,11,18.4,16.5,30,16.5
			c11.6,0,23.3-5.5,30-16.5l97.3-168.3c12.9-22.6,22-49.6,22-78.9C355.8,66.8,289.1,0,206.5,0z M206.5,193.4
			c-30,0-54.5-24.5-54.5-54.5s24.5-54.5,54.5-54.5s54.5,24.5,54.5,54.5C261,169,236.5,193.4,206.5,193.4z"/>
	</g>
</g>
</svg>
